Love for All and Sharing is the first step to solving all the problems of humanity.

Website I want to share. 
               
   http://www.scenetime.com
 
 
  Credit to EVERYONE for sharing and seeding back
 especially to SCENETIME.COM where i get all my 
 downloads.


 support www.scenetime.com to grow faster.

 
 The world is ONE big family.	                                
                                                            
                                                   

.                 ..................................NFO:....................................*******************************************************************************
                Illegal.Tender.2007.DVDRip.AC3.X264-BARC0DE
*******************************************************************************

-------------------------------------------------------------------------------
                              General Information
-------------------------------------------------------------------------------
Type.................: Movie
Name.................: Illegal Tender
Movie Information....: http://www.imdb.com/title/tt0775488/
Genre................: Crime | Drama | Thriller

-------------------------------------------------------------------------------
                                    PLOT
-------------------------------------------------------------------------------
When the thugs who killed his father come looking for him, a young Latino man 
and his mother flee from their home.

-------------------------------------------------------------------------------
                                    CAST
-------------------------------------------------------------------------------
Michael Philip Del Rio	... 	Lugo
Samuel Molina	... 	Older Man
Rick Sepulveda	... 	Joey
Manny Perez	... 	Wilson DeLeon Sr.
D.C. Benny	... 	Ceasar
Mercedes Mercado	... 	Latina Killer #1
Carmen Perez	... 	Latina Killer #2
Zulay Henao	... 	Mora
Jessica Pimentel	... 	Young Millie
Angelic Zambrana	... 	Young Jessenia
Julie Carmen	... 	Nilsa
Ronald Escobar	... 	Javier's Man #1
Gary Perez	... 	Javier Cordero
Rick Gonzalez	... 	Wilson Jr.
Dania Ramirez	... 	Ana

-------------------------------------------------------------------------------
                                    MEDiA iNFO
-------------------------------------------------------------------------------

eneral
Complete name                    : Illegal.Tender.2007.DVDRip.AC3.X264-BARC0DE.mkv
Format                           : Matroska
File size                        : 1.44 GiB
Duration                         : 1h 42mn
Overall bit rate                 : 2 009 Kbps


Video
ID                               : 1
Format                           : AVC
Format/Info                      : Advanced Video Codec
Format profile                   : High@L3.0
Format settings, CABAC           : Yes
Format settings, ReFrames        : 3 frames
Muxing mode                      : Container profile=Unknown@3.0
Codec ID                         : V_MPEG4/ISO/AVC
Duration                         : 1h 42mn
Bit rate                         : 1 585 Kbps
Nominal bit rate                 : 1 645 Kbps
Width                            : 720 pixels
Height                           : 304 pixels
Display aspect ratio             : 2.35:1
Frame rate                       : 25.000 fps
Resolution                       : 8 bits
Colorimetry                      : 4:2:0
Scan type                        : Progressive
Bits/(Pixel*Frame)               : 0.290
Stream size                      : 1.14 GiB (79%)
Writing library                  : x264 core 79

Audio
ID                               : 2
Format                           : AC-3
Format/Info                      : Audio Coding 3
Codec ID                         : A_AC3
Duration                         : 1h 42mn
Bit rate mode                    : Constant
Bit rate                         : 384 Kbps
Channel(s)                       : 6 channels
Channel positions                : Front: L C R, Side: L R, LFE
Sampling rate                    : 48.0 KHz
Stream size                      : 283 MiB (19%)
Language                         : English

Menu
00:00:00.000                     : Chapter 1
00:05:45.440                     : Chapter 2
00:14:10.160                     : Chapter 3
00:16:07.440                     : Chapter 4
00:18:33.080                     : Chapter 5
00:25:08.720                     : Chapter 6
00:31:03.960                     : Chapter 7
00:34:59.800                     : Chapter 8
00:37:45.360                     : Chapter 9
00:45:30.800                     : Chapter 10
00:50:35.040                     : Chapter 11
00:57:58.520                     : Chapter 12
01:06:00.040                     : Chapter 13
01:10:50.080                     : Chapter 14
01:15:08.760                     : Chapter 15
01:18:40.240                     : Chapter 16
01:23:06.160                     : Chapter 17
01:29:12.200                     : Chapter 18
01:33:59.200                     : Chapter 19
01:37:57.640                     : Chapter 20